<svg width="52" height="49" viewBox="0 0 52 49" fill="none" xmlns="http://www.w3.org/2000/svg">
<path fill-rule="evenodd" clip-rule="evenodd" d="M37.7487 14.9695C40.3942 13.8211 40.625 12.7829 40.625 12.25C40.625 11.7171 40.3942 10.6789 37.7487 9.5305C35.1 8.38206 30.9985 7.65625 26 7.65625C21.0015 7.65625 16.9032 8.38206 14.2512 9.5305C11.6057 10.6789 11.375 11.7171 11.375 12.25C11.375 12.7829 11.6057 13.8211 14.2512 14.9695C16.9 16.1179 21.0015 16.8438 26 16.8438C30.9985 16.8438 35.0967 16.1179 37.7487 14.9695ZM26 21.4375C31.486 21.4375 36.4422 20.6413 39.988 19.0518C39.904 19.4933 39.8119 19.9333 39.7117 20.3717L35.8767 37.2461C35.8406 37.3444 35.7982 37.4405 35.75 37.534C35.4982 38.0277 35.1573 38.4764 34.7425 38.8601C33.748 39.7972 31.395 41.3438 26 41.3438C20.605 41.3438 18.252 39.7972 17.2575 38.8631C16.8419 38.4789 16.5009 38.029 16.25 37.534C16.2028 37.4394 16.1615 37.3422 16.1265 37.2431L16.055 36.9368C16.4092 36.8847 16.7667 36.8204 17.1275 36.7439C22.061 35.7302 27.8005 32.9066 34.0957 27.7677C34.3377 27.5702 34.5361 27.3298 34.6795 27.0601C34.8228 26.7904 34.9084 26.4967 34.9314 26.1958C34.9543 25.895 34.9141 25.5928 34.8131 25.3065C34.7121 25.0203 34.5523 24.7556 34.3427 24.5276C34.1332 24.2995 33.878 24.1126 33.5918 23.9775C33.3056 23.8424 32.9939 23.7617 32.6746 23.7401C32.3554 23.7185 32.0347 23.7564 31.7309 23.8516C31.4271 23.9467 31.1462 24.0973 30.9042 24.2948C25.012 29.1091 19.9842 31.4549 16.0842 32.2573C15.7267 32.3308 15.3725 32.3921 15.0312 32.4411L12.2882 20.3748C12.1907 19.9338 12.0965 19.4959 12.012 19.0518C15.5545 20.6443 20.514 21.4375 26 21.4375ZM9.97749 32.144L7.71224 22.1786C6.80224 23.4833 6.30174 24.7695 6.11974 25.9363C5.77199 28.1413 6.54224 29.988 8.04374 31.1426C8.55724 31.5407 9.20074 31.8898 9.98074 32.144H9.97749ZM6.70149 16.2741C6.56758 14.9365 6.50034 13.5936 6.49999 12.25C6.49999 6.125 15.2295 3.0625 26 3.0625C36.7705 3.0625 45.5 6.125 45.5 12.25C45.5 15.3033 45.1587 18.3505 44.4795 21.3364L40.625 38.2812C40.625 38.2812 39 45.9375 26 45.9375C13 45.9375 11.375 38.2812 11.375 38.2812L11.102 37.0746C8.70999 36.7959 6.62349 35.9844 4.95949 34.7012C1.98574 32.4104 0.724744 28.8916 1.29349 25.2656C1.78099 22.1419 3.59449 18.9906 6.69499 16.2741H6.70149Z" fill="black"/>
</svg>
